name C:\Users\u0101727\Documents\MyRepositories\upper-imu-dc\OpenSim\subject0\MA\ResultsMA\grid_4nodes_9dim\angles_6.mot
datacolumns 10
datarows 33
range 625.01000000 625.33000000
endheader 
time	clav_prot	clav_elev	scapula_abduction	scapula_elevation	scapula_upward_rot	scapula_winging	plane_elv	shoulder_elv	axial_rot	
        625.01000000	        -50.00000000	          0.00000000	         -3.33333333	        -10.00000000	          0.00000000	        -10.00000000	         90.00000000	        100.00000000	        -90.00000000	
        625.02000000	        -38.33333333	          0.00000000	         -3.33333333	        -10.00000000	          0.00000000	        -10.00000000	         90.00000000	        100.00000000	        -90.00000000	
        625.03000000	        -26.66666667	          0.00000000	         -3.33333333	        -10.00000000	          0.00000000	        -10.00000000	         90.00000000	        100.00000000	        -90.00000000	
        625.04000000	        -15.00000000	          0.00000000	         -3.33333333	        -10.00000000	          0.00000000	        -10.00000000	         90.00000000	        100.00000000	        -90.00000000	
        625.05000000	        -50.00000000	         10.00000000	         -3.33333333	        -10.00000000	          0.00000000	        -10.00000000	         90.00000000	        100.00000000	        -90.00000000	
        625.06000000	        -38.33333333	         10.00000000	         -3.33333333	        -10.00000000	          0.00000000	        -10.00000000	         90.00000000	        100.00000000	        -90.00000000	
        625.07000000	        -26.66666667	         10.00000000	         -3.33333333	        -10.00000000	          0.00000000	        -10.00000000	         90.00000000	        100.00000000	        -90.00000000	
        625.08000000	        -15.00000000	         10.00000000	         -3.33333333	        -10.00000000	          0.00000000	        -10.00000000	         90.00000000	        100.00000000	        -90.00000000	
        625.09000000	        -50.00000000	         20.00000000	         -3.33333333	        -10.00000000	          0.00000000	        -10.00000000	         90.00000000	        100.00000000	        -90.00000000	
        625.10000000	        -38.33333333	         20.00000000	         -3.33333333	        -10.00000000	          0.00000000	        -10.00000000	         90.00000000	        100.00000000	        -90.00000000	
        625.11000000	        -26.66666667	         20.00000000	         -3.33333333	        -10.00000000	          0.00000000	        -10.00000000	         90.00000000	        100.00000000	        -90.00000000	
        625.12000000	        -15.00000000	         20.00000000	         -3.33333333	        -10.00000000	          0.00000000	        -10.00000000	         90.00000000	        100.00000000	        -90.00000000	
        625.13000000	        -50.00000000	        -10.00000000	         15.00000000	        -10.00000000	          0.00000000	        -10.00000000	         90.00000000	        100.00000000	        -90.00000000	
        625.14000000	        -38.33333333	        -10.00000000	         15.00000000	        -10.00000000	          0.00000000	        -10.00000000	         90.00000000	        100.00000000	        -90.00000000	
        625.15000000	        -26.66666667	        -10.00000000	         15.00000000	        -10.00000000	          0.00000000	        -10.00000000	         90.00000000	        100.00000000	        -90.00000000	
        625.16000000	        -15.00000000	        -10.00000000	         15.00000000	        -10.00000000	          0.00000000	        -10.00000000	         90.00000000	        100.00000000	        -90.00000000	
        625.17000000	        -50.00000000	          0.00000000	         15.00000000	        -10.00000000	          0.00000000	        -10.00000000	         90.00000000	        100.00000000	        -90.00000000	
        625.18000000	        -38.33333333	          0.00000000	         15.00000000	        -10.00000000	          0.00000000	        -10.00000000	         90.00000000	        100.00000000	        -90.00000000	
        625.19000000	        -26.66666667	          0.00000000	         15.00000000	        -10.00000000	          0.00000000	        -10.00000000	         90.00000000	        100.00000000	        -90.00000000	
        625.20000000	        -15.00000000	          0.00000000	         15.00000000	        -10.00000000	          0.00000000	        -10.00000000	         90.00000000	        100.00000000	        -90.00000000	
        625.21000000	        -50.00000000	         10.00000000	         15.00000000	        -10.00000000	          0.00000000	        -10.00000000	         90.00000000	        100.00000000	        -90.00000000	
        625.22000000	        -38.33333333	         10.00000000	         15.00000000	        -10.00000000	          0.00000000	        -10.00000000	         90.00000000	        100.00000000	        -90.00000000	
        625.23000000	        -26.66666667	         10.00000000	         15.00000000	        -10.00000000	          0.00000000	        -10.00000000	         90.00000000	        100.00000000	        -90.00000000	
        625.24000000	        -15.00000000	         10.00000000	         15.00000000	        -10.00000000	          0.00000000	        -10.00000000	         90.00000000	        100.00000000	        -90.00000000	
        625.25000000	        -50.00000000	         20.00000000	         15.00000000	        -10.00000000	          0.00000000	        -10.00000000	         90.00000000	        100.00000000	        -90.00000000	
        625.26000000	        -38.33333333	         20.00000000	         15.00000000	        -10.00000000	          0.00000000	        -10.00000000	         90.00000000	        100.00000000	        -90.00000000	
        625.27000000	        -26.66666667	         20.00000000	         15.00000000	        -10.00000000	          0.00000000	        -10.00000000	         90.00000000	        100.00000000	        -90.00000000	
        625.28000000	        -15.00000000	         20.00000000	         15.00000000	        -10.00000000	          0.00000000	        -10.00000000	         90.00000000	        100.00000000	        -90.00000000	
        625.29000000	        -50.00000000	        -10.00000000	        -40.00000000	         -3.33333333	          0.00000000	        -10.00000000	         90.00000000	        100.00000000	        -90.00000000	
        625.30000000	        -38.33333333	        -10.00000000	        -40.00000000	         -3.33333333	          0.00000000	        -10.00000000	         90.00000000	        100.00000000	        -90.00000000	
        625.31000000	        -26.66666667	        -10.00000000	        -40.00000000	         -3.33333333	          0.00000000	        -10.00000000	         90.00000000	        100.00000000	        -90.00000000	
        625.32000000	        -15.00000000	        -10.00000000	        -40.00000000	         -3.33333333	          0.00000000	        -10.00000000	         90.00000000	        100.00000000	        -90.00000000	
        625.33000000	        -50.00000000	          0.00000000	        -40.00000000	         -3.33333333	          0.00000000	        -10.00000000	         90.00000000	        100.00000000	        -90.00000000	
